<svg width="67" height="65" viewBox="0 0 67 65" fill="none" xmlns="http://www.w3.org/2000/svg">
<path d="M0.561471 59.8175C0.563771 61.036 1.04896 62.2039 1.91073 63.0652C2.7725 63.9266 3.94058 64.4113 5.15903 64.4131C9.27082 62.3633 54.8065 69.2804 53.4078 59.8204C53.2488 49.604 53.3613 40.3844 53.3613 40.3844C53.3613 40.3844 59.0028 34.7602 65.846 28.4888C70.7348 22.6904 58.8459 12.0248 53.4068 21.4334C52.2021 17.3372 56.8447 -0.32886 48.8125 0.0831991L5.15903 0.0827165C-4.24257 -2.50543 2.46704 56.4779 0.561471 59.8175ZM59.831 31.2527L42.2185 48.8652C41.5853 47.7581 40.8592 46.7069 40.0478 45.7228C46.6577 40.5845 52.8241 33.7104 58.8553 27.803C59.4533 28.841 59.8215 29.9953 59.9351 31.1878C59.8992 31.2057 59.868 31.2378 59.831 31.2527ZM33.189 47.5774L33.9929 44.0939C36.8519 45.4309 39.1571 47.7204 40.5136 50.5702L37.0026 51.3877C36.1395 49.7659 34.8115 48.439 33.189 47.5774ZM62.651 28.4494C62.5163 28.6491 62.3459 28.8223 62.1485 28.9604C62.1177 28.8417 62.0743 28.7266 62.0377 28.6094C62.8349 27.0678 63.5502 25.4851 64.1806 23.8681C65.0296 25.4001 64.973 27.0096 62.651 28.4494ZM57.1727 23.0761C57.5113 22.4935 57.9738 21.2389 57.2665 20.794C58.3705 19.8183 59.7406 19.1262 60.969 20.3666C61.841 21.0862 62.6519 21.8768 63.3935 22.7301C62.5738 24.0345 61.8538 25.3988 61.2395 26.8116C61.0275 26.4557 60.789 26.1163 60.526 25.7963C63.1778 21.2757 61.7558 18.5078 59.6221 24.8582C59.3548 24.6182 59.0708 24.3975 58.7724 24.1976C59.5372 23.0673 59.9653 21.7431 60.007 20.379C60.0037 20.2742 59.9669 20.1733 59.9019 20.091C59.837 20.0088 59.7473 19.9496 59.6461 19.9222C59.5449 19.8947 59.4376 19.9006 59.34 19.9388C59.2424 19.977 59.1596 20.0455 59.1039 20.1343C58.4396 21.1861 57.9366 22.3316 57.6117 23.5325C57.418 23.4403 57.2213 23.3581 57.0208 23.2836C57.0775 23.2191 57.1283 23.1496 57.1727 23.0761ZM55.5711 22.5729C55.7478 22.3777 55.9462 22.2034 56.1626 22.0533L56.0992 21.9899C56.2584 21.8082 56.435 21.6128 56.6234 21.4154C56.6179 21.4157 56.5664 21.8014 56.5876 21.6151C56.5109 22.1001 56.4331 22.5874 56.3672 23.0742C55.987 22.9803 55.5984 22.9239 55.2072 22.9058C55.3278 22.794 55.4475 22.6813 55.5711 22.5729ZM53.5528 24.5363C54.7774 24.8353 55.9569 25.2957 57.0602 25.9055C51.2008 32.1881 44.6018 37.7856 38.9039 44.1922C38.8903 44.1611 38.8738 44.1309 38.8608 44.0998L38.5941 44.3665C37.7127 43.597 36.7493 42.9267 35.7214 42.3676L53.5528 24.5363ZM2.86152 4.67774C1.288 -0.578967 47.2962 3.69761 48.8119 2.37793C49.4212 2.37945 50.005 2.62232 50.4356 3.05336C50.8662 3.4844 51.1084 4.06848 51.1093 4.67774V23.7309C49.9324 25.0209 32.536 41.9989 31.8297 43.2547C27.289 58.3504 29.6131 56.6066 42.6978 51.6349L51.1093 43.2233C50.1211 45.283 53.4371 62.6369 48.8127 62.1156L5.15903 62.1155C-0.385712 63.8282 4.36777 6.1289 2.86152 4.67774Z" fill="#D3D655"/>
<path d="M9.75606 58.6693C12.7671 58.0868 22.5743 60.6989 22.392 55.2233C21.8099 52.212 24.422 42.4048 18.9464 42.5871C15.9351 43.1691 6.12784 40.557 6.31013 46.0327C6.89229 49.044 4.28017 58.8512 9.75606 58.6693ZM8.6073 46.033C8.2767 43.73 17.9643 45.3371 18.9461 44.8836C21.2491 44.5536 19.642 54.2411 20.0955 55.223C20.4255 57.5259 10.7379 55.9189 9.75613 56.3724C7.45313 56.7024 9.06015 47.0148 8.6073 46.033Z" fill="#D3D655"/>
<path d="M10.8376 19.7321C14.1288 19.7027 17.4692 19.7704 20.7313 19.5277C21.4891 19.2834 21.6378 18.5351 21.6723 17.8362C21.7462 16.6132 21.801 15.3852 21.7562 14.1603C23.8161 11.5382 26.8685 8.90005 28.6223 6.5351C28.6958 6.40052 28.7286 6.24747 28.7167 6.0946C28.7048 5.94172 28.6486 5.79561 28.5552 5.67405C28.4617 5.55249 28.3349 5.46072 28.1903 5.40991C28.0456 5.3591 27.8892 5.35145 27.7403 5.38788C25.2429 6.4307 23.6122 8.94142 21.6983 10.7667C21.5369 9.23016 22.3454 6.87186 20.4057 6.21411C18.627 5.9681 16.822 5.98246 15.0475 6.25674C13.5467 6.45341 11.6513 7.10268 10.2137 6.36318C9.88235 6.24917 9.37093 5.8202 8.88735 6.45393C7.65607 9.50888 8.56685 13.0181 8.59063 16.2347C8.69873 18.0192 8.39437 19.9127 10.8376 19.7321ZM14.1499 8.58574C15.948 8.17727 17.7868 7.97545 19.6307 7.98423C19.9459 8.00022 19.9329 7.97159 19.9565 8.26939C20.0138 9.76773 19.8363 11.2673 19.7879 12.765C19.2541 13.2988 18.7185 13.8319 18.1595 14.3396C16.91 13.1217 16.1277 11.2733 14.6189 10.3541C14.4875 10.2807 14.3393 10.2426 14.1888 10.2435C14.0383 10.2444 13.8906 10.2842 13.76 10.3591C13.6295 10.434 13.5205 10.5415 13.4438 10.671C13.3672 10.8005 13.3253 10.9477 13.3224 11.0982C13.5385 13.0896 15.1852 14.6466 16.2972 16.2149C16.4496 16.5167 16.6763 16.7747 16.956 16.9646C17.2358 17.1544 17.5593 17.2699 17.896 17.3001C18.2327 17.3303 18.5716 17.2742 18.8806 17.1372C19.1897 17.0001 19.4587 16.7866 19.6624 16.5167C19.6625 16.8171 19.6684 17.3719 19.671 17.6747C16.7585 17.4641 13.8586 17.5463 10.9413 17.498C10.7036 14.5738 10.3158 11.6538 10.2393 8.72219C11.5387 8.94123 12.869 8.89482 14.1499 8.58574ZM17.756 14.6993C17.6187 14.8266 17.6005 14.8321 17.7172 14.6993H17.756Z" fill="#D3D655"/>
<path d="M32.0994 10.5958C35.0212 10.6853 37.934 10.667 40.8518 10.4789C41.8976 10.5867 42.9477 10.3193 43.8146 9.72451C44.5982 8.7969 43.232 8.067 42.3858 8.08937C38.8653 8.12349 35.3589 8.53825 31.9276 9.32641C31.1974 9.485 31.3891 10.5764 32.0994 10.5958Z" fill="#D3D655"/>
<path d="M30.2685 15.1438C34.4976 15.7828 38.7754 15.2936 43.0308 15.0891C44.2835 15.0123 46.2806 15.2514 47.2104 14.2812C47.3108 14.1763 47.3864 14.0504 47.4318 13.9125C47.4771 13.7746 47.491 13.6283 47.4725 13.4843C47.4539 13.3404 47.4034 13.2024 47.3246 13.0805C47.2458 12.9586 47.1406 12.8559 47.017 12.78C46.3841 12.4317 45.6431 12.3354 44.9423 12.5103C42.8192 12.7111 40.6941 12.891 38.5672 13.05C35.7284 13.1439 32.9028 13.4818 30.1219 14.0598C29.4686 14.1607 29.6915 15.0964 30.2685 15.1438Z" fill="#D3D655"/>
<path d="M25.1514 25.1929C24.0995 26.2633 23.1033 27.387 22.1668 28.5597C22.4988 22.3818 19.9537 24.53 15.617 24.704C13.7969 24.8344 11.971 24.8648 10.1475 24.7949C9.98585 24.7859 9.82421 24.8134 9.67457 24.8753C9.52493 24.9372 9.39112 25.0319 9.28303 25.1525C9.17494 25.2731 9.09534 25.4164 9.05012 25.5719C9.00489 25.7274 8.9952 25.8911 9.02176 26.0508C8.77228 25.861 8.31987 25.9502 8.36569 26.337C8.62185 29.3777 8.61647 32.4349 8.34961 35.4747C8.49047 37.2197 10.6027 36.9571 11.8641 37.043C13.4642 37.1519 15.0622 37.252 16.6644 37.3217C22.0069 37.6582 22.3928 37.8461 22.1918 32.2372C24.0141 29.9168 26.0475 27.7703 28.266 25.8253C29.0182 25.1677 30.2405 24.5368 30.2049 23.4223C30.2013 23.1698 30.1168 22.9251 29.9638 22.7242C29.8108 22.5232 29.5974 22.3766 29.3549 22.306C28.2993 22.0659 27.6783 22.8056 26.9607 23.4574C26.342 24.0193 25.7389 24.5979 25.1514 25.1929ZM19.8654 31.2697C19.8649 31.4124 19.8643 31.555 19.8635 31.6976C18.8863 33.3244 18.2854 32.5096 17.3604 31.4594C16.6866 30.7924 16.0128 30.1252 15.339 29.4581C14.6924 28.8178 13.8399 29.7519 14.3681 30.429C15.8625 31.9311 17.2207 35.6316 19.8317 34.5204C19.8072 34.7181 19.8095 34.9181 19.8385 35.1152C16.6409 35.0791 13.4823 34.9327 10.2926 34.9144C10.2968 34.8468 10.3002 34.7951 10.2996 34.8034C10.558 32.0975 10.2276 29.3677 9.33114 26.8016C9.43465 26.9153 9.56068 27.0063 9.70123 27.0687C9.84178 27.1311 9.99377 27.1636 10.1476 27.1642C13.3973 27.2335 16.6467 27.0138 19.8576 26.5078C19.8833 28.0954 19.8655 29.6821 19.8654 31.2697Z" fill="#D3D655"/>
<path d="M41.9412 24.1959C38.5076 23.8591 34.8596 25.2757 31.5162 26.0551C30.7555 26.2691 30.8688 27.5647 31.7094 27.4833C33.3867 27.321 35.0612 27.1789 36.7328 26.9655C38.3824 26.8056 40.0142 26.4925 41.6553 26.3086C41.911 26.3007 42.1555 26.2024 42.3455 26.0311C42.5355 25.8599 42.6586 25.6268 42.6929 25.3733C42.7272 25.1199 42.6705 24.8624 42.5328 24.6469C42.3952 24.4313 42.1856 24.2715 41.9412 24.1959Z" fill="#D3D655"/>
<path d="M38.6886 28.5127C36.2435 28.9345 33.7949 29.3306 31.3495 29.7497C31.203 29.7954 31.0775 29.8915 30.9951 30.0209C30.9127 30.1503 30.8788 30.3047 30.8994 30.4568C30.92 30.6088 30.9937 30.7487 31.1076 30.8515C31.2214 30.9544 31.3679 31.0137 31.5213 31.0188C33.145 31.1615 41.4915 31.7863 41.1701 29.3574C41.02 28.2477 39.4842 28.381 38.6886 28.5127Z" fill="#D3D655"/>
</svg>
